<svg width="17" height="18" viewBox="0 0 17 18" fill="none" xmlns="http://www.w3.org/2000/svg">
<path d="M16.6053 11.2806L15.0252 10.0996C15.0292 10.0755 15.0321 10.0512 15.0358 10.0269C15.0375 10.017 15.0387 10.007 15.0402 9.99719C15.0557 9.8942 15.0687 9.79137 15.0792 9.68839C15.0798 9.6829 15.0802 9.67771 15.0809 9.67222C15.0916 9.56481 15.0998 9.45725 15.1051 9.34969C15.1056 9.34511 15.1057 9.34023 15.1059 9.33565C15.111 9.22916 15.1139 9.12267 15.114 9.01617C15.114 9.01083 15.1143 9.00549 15.1143 9.00015C15.1143 8.9942 15.114 8.98825 15.114 8.9823C15.114 8.95911 15.1145 8.93562 15.1142 8.91243C15.114 8.90815 15.1142 8.90388 15.1142 8.89946C15.1134 8.85308 15.1115 8.807 15.1098 8.76062C15.1086 8.73194 15.1072 8.70356 15.1059 8.67503C15.1028 8.61827 15.1007 8.56152 15.0965 8.50492C15.0959 8.49912 15.0951 8.49317 15.0948 8.48737C15.0934 8.47074 15.0918 8.45396 15.0907 8.43748C15.0881 8.40743 15.0846 8.37737 15.0818 8.34731C15.081 8.34075 15.0804 8.33419 15.0798 8.32778C15.0793 8.32412 15.079 8.32016 15.0786 8.31649C15.0769 8.30139 15.0757 8.28613 15.0742 8.27103C15.0721 8.25226 15.071 8.2335 15.0687 8.21488C15.0675 8.20512 15.066 8.19551 15.0651 8.1859C15.0637 8.17537 15.0619 8.16454 15.0605 8.15401C15.051 8.07666 15.0402 7.99961 15.0278 7.92302C15.0268 7.91631 15.0263 7.90959 15.0252 7.90288L16.6074 6.72017C16.9829 6.502 17.1114 6.01882 16.8947 5.64091L15.5868 3.36016C15.3701 2.98225 14.8901 2.85287 14.5149 3.07105L12.7062 3.85937C12.6962 3.85097 12.6852 3.8438 12.6752 3.83572C12.6705 3.8319 12.666 3.82809 12.6613 3.82428C12.638 3.8052 12.6139 3.7869 12.5901 3.76813C12.5642 3.74753 12.5384 3.72724 12.5123 3.70741C12.491 3.69108 12.4695 3.67522 12.4481 3.6592C12.4382 3.65157 12.4279 3.64409 12.4179 3.63662C12.4004 3.62365 12.3832 3.61007 12.3655 3.59725C12.3558 3.59008 12.3461 3.58307 12.3363 3.57589C12.3117 3.55835 12.2869 3.54141 12.262 3.52417C12.2558 3.5199 12.2496 3.51532 12.2432 3.51105C12.2325 3.50358 12.2216 3.4961 12.2108 3.48878C12.1746 3.46391 12.1382 3.4395 12.1015 3.41539C12.0974 3.4128 12.0932 3.41021 12.0891 3.40746C12.0291 3.3684 11.9688 3.32995 11.9076 3.29288C11.892 3.28342 11.8764 3.27457 11.8606 3.26527C11.7291 3.187 11.5951 3.11285 11.4581 3.04389C11.4554 3.04252 11.453 3.0413 11.4501 3.04007C11.2726 2.95082 11.0905 2.86966 10.9043 2.79627C10.8991 2.79429 10.894 2.7923 10.8888 2.79017C10.865 2.78086 10.8414 2.77079 10.8176 2.76164L10.5913 0.790151C10.5915 0.353806 10.2402 0 9.8067 0H7.19152C6.75813 0 6.40688 0.353653 6.40688 0.790151L6.18064 2.76164C6.17003 2.7656 6.15987 2.77018 6.14927 2.77415C6.13699 2.77888 6.12457 2.78391 6.11229 2.78895C6.04001 2.81717 5.96849 2.84631 5.89757 2.87698C5.88484 2.88232 5.87211 2.88827 5.85953 2.89376C5.79528 2.92199 5.73134 2.95097 5.66799 2.98103C5.66133 2.98423 5.65466 2.98759 5.64799 2.9908C5.63966 2.99476 5.63132 2.99858 5.62299 3.00254C5.5998 3.01383 5.57677 3.02543 5.55374 3.03702C5.50055 3.06372 5.44797 3.09118 5.39569 3.11941C5.3578 3.1397 5.31962 3.15969 5.28189 3.18059C5.25809 3.19402 5.23476 3.20836 5.21112 3.22194C5.2093 3.22285 5.20748 3.22407 5.20566 3.22514C5.20127 3.22773 5.19657 3.22956 5.19233 3.23216C5.1846 3.23658 5.17748 3.24177 5.1699 3.24604C5.08428 3.29608 4.99988 3.34811 4.91654 3.40212C4.90699 3.40822 4.89759 3.41432 4.8882 3.42058C4.87865 3.42684 4.8688 3.43309 4.8591 3.43935C4.85638 3.44133 4.8535 3.44285 4.85092 3.44469C4.7797 3.49213 4.70954 3.54111 4.63999 3.5913C4.63029 3.59832 4.62044 3.60534 4.61074 3.61251C4.533 3.66927 4.45633 3.728 4.38086 3.78827C4.36783 3.79864 4.35465 3.80917 4.34177 3.8197C4.32525 3.83328 4.30828 3.84594 4.29191 3.85967L2.48562 3.07242C2.11027 2.85425 1.63021 2.98378 1.41352 3.36169L0.105321 5.64197C-0.111525 6.02019 0.0172793 6.50337 0.392478 6.72155L1.97283 7.90273C1.96965 7.9218 1.96737 7.94102 1.96434 7.96009C1.96101 7.98191 1.95783 8.00358 1.9548 8.02539C1.94161 8.11602 1.92995 8.20649 1.9204 8.29697C1.91858 8.31482 1.91691 8.33251 1.9151 8.35052C1.90722 8.43153 1.90055 8.5127 1.8957 8.59371C1.8954 8.59997 1.89509 8.60637 1.89479 8.61263C1.89434 8.61949 1.89418 8.62636 1.89373 8.63323C1.89267 8.65108 1.89191 8.66908 1.891 8.68708C1.88676 8.77939 1.88449 8.87184 1.88418 8.96399C1.88403 8.97696 1.88312 8.98947 1.88312 9.00244C1.88312 9.01648 1.88388 9.03067 1.88388 9.0447C1.88388 9.05492 1.88373 9.0653 1.88388 9.07552C1.88388 9.08666 1.88358 9.0978 1.88388 9.10909C1.88449 9.14677 1.88615 9.18461 1.88752 9.22229C1.88903 9.27127 1.89161 9.32009 1.89418 9.36876C1.89646 9.4098 1.89812 9.45069 1.90115 9.49158C1.90161 9.49737 1.90206 9.50332 1.90237 9.50912C1.90388 9.52941 1.9057 9.5497 1.90737 9.56969C1.90949 9.59578 1.91252 9.62172 1.91494 9.64765C1.92055 9.70639 1.92616 9.76498 1.93328 9.8231C1.93328 9.82387 1.93358 9.82478 1.93358 9.82555C1.94419 9.91236 1.95646 9.99871 1.97056 10.0846C1.97131 10.0895 1.97162 10.0945 1.97253 10.0997L0.39263 11.2809C0.0171279 11.4991 -0.111373 11.9823 0.105472 12.36L1.41321 14.6408C1.62991 15.0188 2.10997 15.1482 2.48517 14.93L4.29115 14.1434C4.30358 14.1538 4.31676 14.1625 4.32919 14.1725C4.33131 14.1745 4.33373 14.1759 4.33586 14.1776C4.33586 14.1779 4.33616 14.178 4.33616 14.178C4.35556 14.1939 4.37556 14.2091 4.39526 14.2249C4.42617 14.2494 4.45708 14.274 4.48845 14.2979C4.50664 14.312 4.52497 14.3254 4.54331 14.3393C4.5674 14.3573 4.59134 14.3756 4.61574 14.3934C4.61847 14.3954 4.62089 14.3973 4.62347 14.3994C4.63498 14.4078 4.6462 14.4162 4.65787 14.4244C4.6859 14.4446 4.71454 14.4639 4.74288 14.4835C4.7453 14.4854 4.74788 14.487 4.7503 14.4885C4.76152 14.4964 4.77258 14.5042 4.78379 14.5117C4.88305 14.5797 4.98397 14.6455 5.08716 14.708C5.1052 14.7189 5.12323 14.7294 5.14126 14.7398C5.27052 14.8167 5.40235 14.8894 5.53707 14.9576C5.54162 14.9601 5.54631 14.9621 5.55086 14.9645C5.75482 15.0667 5.9644 15.1598 6.17957 15.241L6.40566 17.2097C6.40566 17.6459 6.75692 17.9998 7.19046 17.9998L9.8061 18C10.2393 17.9998 10.5909 17.6463 10.5909 17.2097L10.8171 15.2407C10.8282 15.2365 10.8388 15.2318 10.8499 15.2277C10.8608 15.2236 10.8717 15.2188 10.8824 15.2146C10.9553 15.1862 11.0278 15.1567 11.0994 15.1259C11.1135 15.12 11.1275 15.1134 11.1414 15.1073C11.2054 15.0791 11.269 15.0504 11.3317 15.0205C11.3377 15.0174 11.3437 15.0145 11.3496 15.0115C11.3501 15.0113 11.3507 15.011 11.3513 15.0107C11.358 15.0075 11.3649 15.0046 11.3716 15.0011C11.3963 14.9891 11.421 14.9769 11.4454 14.9645C11.4977 14.9384 11.5492 14.9113 11.6004 14.8838C11.6395 14.8629 11.6786 14.8426 11.7172 14.8211C11.7369 14.8101 11.7563 14.7982 11.7759 14.7868C11.7824 14.7831 11.7891 14.779 11.7956 14.7752C11.7989 14.7733 11.8024 14.772 11.8056 14.77C11.8113 14.7668 11.8167 14.763 11.8224 14.7598C11.9115 14.7077 11.9996 14.6536 12.0862 14.5973C12.0926 14.5932 12.0988 14.5889 12.1052 14.5851C12.1187 14.5761 12.1323 14.5677 12.1456 14.5587C12.2188 14.5102 12.2913 14.4597 12.3628 14.4079C12.3699 14.4029 12.3767 14.3979 12.3837 14.3925C12.4642 14.3338 12.5437 14.2732 12.6216 14.2107C12.6322 14.2023 12.643 14.1939 12.6533 14.1855C12.6709 14.1708 12.689 14.1571 12.7066 14.1426L14.5129 14.9297C14.8884 15.148 15.3683 15.0184 15.5849 14.6404L16.8927 12.3599C17.1091 11.9819 16.9806 11.4988 16.6053 11.2806ZM8.50002 11.7482C6.99256 11.7482 5.77043 10.5179 5.77043 9C5.77043 7.4821 6.99256 6.25164 8.50002 6.25164C10.0075 6.25164 11.2298 7.48225 11.2298 9C11.2298 10.5177 10.0075 11.7482 8.50002 11.7482Z" fill="#E9E9E9"/>
</svg>
