<svg width="15" height="15" viewBox="0 0 15 15" fill="none" xmlns="http://www.w3.org/2000/svg">
<path d="M6.42857 6.75V4.5L10 7.5L6.42857 10.5V8.25H0V6.75H6.42857ZM1.04143 9.75H2.55857C3.05718 11.0393 3.96693 12.1067 5.13223 12.7695C6.29752 13.4323 7.64593 13.6493 8.94682 13.3836C10.2477 13.1178 11.4202 12.3857 12.2638 11.3124C13.1074 10.2392 13.5696 8.89154 13.5714 7.5C13.5722 6.107 13.1113 4.75712 12.2678 3.68192C11.4243 2.60671 10.2508 1.87317 8.94855 1.60711C7.6463 1.34105 6.29646 1.55906 5.13056 2.22373C3.96465 2.88841 3.05533 3.95834 2.55857 5.25H1.04143C1.95143 2.20725 4.65857 0 7.85714 0C11.8021 0 15 3.35775 15 7.5C15 11.6422 11.8021 15 7.85714 15C4.65857 15 1.95143 12.7928 1.04143 9.75Z" fill="#D0D0D0"/>
</svg>
