<svg width="15" height="15" viewBox="0 0 15 15" fill="none" xmlns="http://www.w3.org/2000/svg">
<path d="M7.50792 15C6.38859 15 5.36959 14.8138 4.4509 14.4414C3.53221 14.069 2.74023 13.5432 2.07497 12.8642C1.40971 12.1851 0.897575 11.391 0.538543 10.4819C0.179514 9.56188 0 8.55969 0 7.47536C0 6.39102 0.179514 5.3943 0.538543 4.48521C0.897575 3.57613 1.40971 2.78752 2.07497 2.11939C2.7508 1.45126 3.55332 0.931002 4.48258 0.558599C5.41183 0.1862 6.4414 0 7.57128 0C8.65893 0 9.65681 0.180723 10.5649 0.54217C11.4731 0.892659 12.2545 1.39102 12.9092 2.03724C13.5744 2.67251 14.0865 3.42826 14.4456 4.30449C14.8152 5.18072 15 6.14458 15 7.19606C15 8.138 14.8785 8.954 14.6357 9.64403C14.3929 10.3231 14.0444 10.8434 13.5903 11.2048C13.1468 11.5663 12.603 11.747 11.9588 11.747C11.3041 11.747 10.7814 11.5444 10.3907 11.1391C10.0106 10.7338 9.82048 10.1479 9.82048 9.38116V8.44469L9.88384 7.50822L9.74129 5.3724V3.49945H11.4995V9.08543C11.4995 9.50164 11.5787 9.79737 11.7371 9.97262C11.9061 10.1369 12.1014 10.2191 12.3231 10.2191C12.6082 10.2191 12.8511 10.1041 13.0517 9.87404C13.2524 9.64403 13.4002 9.30449 13.4952 8.85542C13.6009 8.40636 13.6536 7.86419 13.6536 7.22892C13.6536 6.35269 13.5058 5.55312 13.2101 4.83023C12.925 4.10734 12.508 3.4885 11.9588 2.97371C11.4203 2.44797 10.7761 2.0482 10.0264 1.77437C9.28722 1.4896 8.46885 1.34721 7.57128 1.34721C6.65259 1.34721 5.81837 1.50054 5.06864 1.80723C4.31891 2.10296 3.67476 2.52465 3.13622 3.07229C2.59768 3.61993 2.18057 4.27163 1.8849 5.02738C1.59979 5.77218 1.45723 6.58817 1.45723 7.47536C1.45723 8.38444 1.59979 9.21687 1.8849 9.97262C2.17001 10.7284 2.57656 11.3746 3.10454 11.9113C3.64308 12.4589 4.28194 12.8806 5.02112 13.1763C5.7603 13.4831 6.58923 13.6364 7.50792 13.6364C7.99367 13.6364 8.50581 13.5761 9.04435 13.4556C9.58289 13.3461 10.095 13.1653 10.5808 12.9135L11.0084 14.2278C10.5227 14.4797 9.96304 14.6714 9.32946 14.8028C8.69588 14.9343 8.0887 15 7.50792 15ZM7.09609 11.747C6.36748 11.747 5.71806 11.5717 5.14783 11.2212C4.57761 10.8598 4.12354 10.3669 3.78564 9.74261C3.45828 9.10733 3.29461 8.37897 3.29461 7.5575C3.29461 6.74699 3.45828 6.02957 3.78564 5.40526C4.11299 4.76999 4.56177 4.27711 5.132 3.92662C5.71278 3.57613 6.36748 3.40088 7.09609 3.40088C7.80359 3.40088 8.42133 3.56517 8.94931 3.89376C9.47729 4.21139 9.88912 4.67689 10.1848 5.29025C10.4805 5.90361 10.6283 6.65936 10.6283 7.5575C10.6283 8.45565 10.4857 9.21687 10.2006 9.84118C9.91552 10.4655 9.50897 10.942 8.98099 11.2705C8.45301 11.5882 7.82471 11.747 7.09609 11.747ZM7.42872 10.1533C7.88279 10.1533 8.28405 10.0548 8.63252 9.85761C8.98099 9.6495 9.25554 9.3483 9.45618 8.954C9.66737 8.55969 9.77297 8.0942 9.77297 7.5575C9.77297 7.00986 9.66737 6.54984 9.45618 6.17744C9.25554 5.79409 8.98099 5.50383 8.63252 5.30668C8.28405 5.09857 7.88279 4.99452 7.42872 4.99452C6.9641 4.99452 6.55227 5.09857 6.19324 5.30668C5.84477 5.51479 5.57023 5.81052 5.36959 6.19387C5.17951 6.57721 5.08448 7.03176 5.08448 7.5575C5.08448 8.0942 5.17951 8.55422 5.36959 8.93757C5.57023 9.32092 5.84477 9.62213 6.19324 9.84118C6.55227 10.0493 6.9641 10.1533 7.42872 10.1533Z" fill="#D0D0D0"/>
</svg>
