<svg width="15" height="15" viewBox="0 0 15 15" fill="none" xmlns="http://www.w3.org/2000/svg">
<path d="M12.7 6.25083H10.1H4.9V4.501C4.9 3.18862 5.875 2.00124 7.24 1.87625C8.8 1.75126 10.1 2.93865 10.1 4.37601C10.1 4.75097 10.36 5.00095 10.75 5.00095H11.4C11.79 5.00095 12.05 4.75097 12.05 4.37601C12.05 2.00124 10.1 0.0639201 7.63 0.00142602C5.095 -0.061068 2.95 1.93874 2.95 4.37601V6.25083H2.3C1.585 6.25083 1 6.81328 1 7.50071V11.8753C1 13.6251 2.43 15 4.25 15H10.75C12.57 15 14 13.6251 14 11.8753V7.50071C14 6.81328 13.415 6.25083 12.7 6.25083ZM8.15 11.0629V11.8753C8.15 12.1878 7.825 12.5002 7.5 12.5002C7.175 12.5002 6.85 12.1878 6.85 11.8753V11.0629C6.46 10.8754 6.2 10.4379 6.2 10.0005C6.2 9.31304 6.785 8.75059 7.5 8.75059C8.215 8.75059 8.8 9.31304 8.8 10.0005C8.8 10.4379 8.54 10.8754 8.15 11.0629Z" fill="#BEBEBE"/>
</svg>
